<svg width="57" height="16" viewBox="0 0 57 16" fill="none" xmlns="http://www.w3.org/2000/svg" >
<path d="M6.32 15.2C5.08 15.2 4.00667 14.9267 3.1 14.38C2.19333 13.8333 1.48667 13.06 0.98 12.06C0.473333 11.0467 0.22 9.82667 0.22 8.4C0.22 7 0.48 5.79333 1 4.78C1.53333 3.76667 2.28 2.98667 3.24 2.44C4.21333 1.88 5.32667 1.6 6.58 1.6C7.95333 1.6 9.06 1.85333 9.9 2.36C10.7533 2.86667 11.4333 3.65333 11.94 4.72L9.96 5.66C9.70667 4.92667 9.28667 4.38 8.7 4.02C8.12667 3.64667 7.42667 3.46 6.6 3.46C5.77333 3.46 5.04667 3.65333 4.42 4.04C3.80667 4.42667 3.32667 4.99333 2.98 5.74C2.63333 6.47333 2.46 7.36 2.46 8.4C2.46 9.45333 2.61333 10.3533 2.92 11.1C3.22667 11.8333 3.68667 12.3933 4.3 12.78C4.92667 13.1667 5.69333 13.36 6.6 13.36C7.09333 13.36 7.55333 13.3 7.98 13.18C8.40667 13.0467 8.78 12.86 9.1 12.62C9.42 12.3667 9.66667 12.0533 9.84 11.68C10.0267 11.2933 10.12 10.84 10.12 10.32V9.94H6.28V8.2H12.02V15H10.42L10.3 12.34L10.7 12.54C10.38 13.38 9.84667 14.0333 9.1 14.5C8.36667 14.9667 7.44 15.2 6.32 15.2ZM20.7927 15.2C19.5527 15.2 18.4793 14.9267 17.5727 14.38C16.666 13.8333 15.9593 13.06 15.4527 12.06C14.946 11.0467 14.6927 9.82667 14.6927 8.4C14.6927 7 14.9527 5.79333 15.4727 4.78C16.006 3.76667 16.7527 2.98667 17.7127 2.44C18.686 1.88 19.7993 1.6 21.0527 1.6C22.426 1.6 23.5327 1.85333 24.3727 2.36C25.226 2.86667 25.906 3.65333 26.4127 4.72L24.4327 5.66C24.1793 4.92667 23.7593 4.38 23.1727 4.02C22.5993 3.64667 21.8993 3.46 21.0727 3.46C20.246 3.46 19.5193 3.65333 18.8927 4.04C18.2793 4.42667 17.7993 4.99333 17.4527 5.74C17.106 6.47333 16.9327 7.36 16.9327 8.4C16.9327 9.45333 17.086 10.3533 17.3927 11.1C17.6993 11.8333 18.1593 12.3933 18.7727 12.78C19.3993 13.1667 20.166 13.36 21.0727 13.36C21.566 13.36 22.026 13.3 22.4527 13.18C22.8793 13.0467 23.2527 12.86 23.5727 12.62C23.8927 12.3667 24.1393 12.0533 24.3127 11.68C24.4993 11.2933 24.5927 10.84 24.5927 10.32V9.94H20.7527V8.2H26.4927V15H24.8927L24.7727 12.34L25.1727 12.54C24.8527 13.38 24.3193 14.0333 23.5727 14.5C22.8393 14.9667 21.9127 15.2 20.7927 15.2ZM30.6853 12.3C31.1386 12.3 31.4986 12.4333 31.7653 12.7C32.0453 12.9533 32.1853 13.3 32.1853 13.74C32.1853 14.18 32.0453 14.5333 31.7653 14.8C31.4986 15.0667 31.1386 15.2 30.6853 15.2C30.2186 15.2 29.8453 15.0667 29.5653 14.8C29.2986 14.5333 29.1653 14.18 29.1653 13.74C29.1653 13.3 29.2986 12.9533 29.5653 12.7C29.8453 12.4333 30.2186 12.3 30.6853 12.3ZM44.5141 5L40.0541 9.56L39.5941 9.88L36.4541 13.14L36.4341 10.7L41.9741 5H44.5141ZM37.2141 0.5V15H35.0741V0.5H37.2141ZM40.3141 8.36L44.7541 15H42.2741L38.7141 9.58L40.3141 8.36ZM51.0742 4.8C52.0476 4.8 52.9076 5.00667 53.6542 5.42C54.4009 5.83333 54.9809 6.43333 55.3942 7.22C55.8209 7.99333 56.0342 8.92 56.0342 10C56.0342 11.08 55.8209 12.0133 55.3942 12.8C54.9809 13.5733 54.4009 14.1667 53.6542 14.58C52.9076 14.9933 52.0476 15.2 51.0742 15.2C50.1009 15.2 49.2409 14.9933 48.4942 14.58C47.7476 14.1667 47.1609 13.5733 46.7342 12.8C46.3076 12.0133 46.0942 11.08 46.0942 10C46.0942 8.92 46.3076 7.99333 46.7342 7.22C47.1609 6.43333 47.7476 5.83333 48.4942 5.42C49.2409 5.00667 50.1009 4.8 51.0742 4.8ZM51.0742 6.48C50.4742 6.48 49.9609 6.62 49.5342 6.9C49.1209 7.16667 48.8009 7.56 48.5742 8.08C48.3476 8.6 48.2342 9.24 48.2342 10C48.2342 10.7467 48.3476 11.3867 48.5742 11.92C48.8009 12.44 49.1209 12.84 49.5342 13.12C49.9609 13.3867 50.4742 13.52 51.0742 13.52C51.6742 13.52 52.1809 13.3867 52.5942 13.12C53.0076 12.84 53.3276 12.44 53.5542 11.92C53.7809 11.3867 53.8942 10.7467 53.8942 10C53.8942 9.24 53.7809 8.6 53.5542 8.08C53.3276 7.56 53.0076 7.16667 52.5942 6.9C52.1809 6.62 51.6742 6.48 51.0742 6.48Z" fill="white"/>
</svg>
