<svg width="47" height="39" viewBox="0 0 47 39" fill="none" xmlns="http://www.w3.org/2000/svg">
<rect opacity="0.2" y="7.29321" width="42" height="32" rx="8.448" transform="rotate(-10 0 7.29321)" fill="#14B45C"/>
<path fill-rule="evenodd" clip-rule="evenodd" d="M3.33118 8.77164C2.45923 10.4829 2.45923 12.7231 2.45923 17.2036V21.6036C2.45923 26.084 2.45923 28.3242 3.33118 30.0355C4.09816 31.5408 5.32201 32.7646 6.8273 33.5316C8.5386 34.4036 10.7788 34.4036 15.2592 34.4036H29.6592C34.1396 34.4036 36.3799 34.4036 38.0912 33.5316C39.5965 32.7646 40.8203 31.5408 41.5873 30.0355C42.4592 28.3242 42.4592 26.084 42.4592 21.6036V17.2036C42.4592 12.7231 42.4592 10.4829 41.5873 8.77164C40.8203 7.26634 39.5965 6.0425 38.0912 5.27551C36.3799 4.40356 34.1396 4.40356 29.6592 4.40356H15.2592C10.7788 4.40356 8.5386 4.40356 6.8273 5.27551C5.32201 6.0425 4.09816 7.26634 3.33118 8.77164ZM27.0592 18.4036C26.7174 18.4036 26.4133 18.6208 26.3025 18.9441L24.6592 23.7369L20.616 11.9441C20.3689 11.2234 19.3496 11.2234 19.1025 11.9441L16.8878 18.4036H14.2592C13.8174 18.4036 13.4592 18.7617 13.4592 19.2036C13.4592 19.6454 13.8174 20.0036 14.2592 20.0036H17.4592C17.8011 20.0036 18.1051 19.7864 18.216 19.463L19.8592 14.6702L23.9025 26.463C24.1496 27.1837 25.1689 27.1837 25.416 26.463L27.6307 20.0036H30.2592C30.7011 20.0036 31.0592 19.6454 31.0592 19.2036C31.0592 18.7617 30.7011 18.4036 30.2592 18.4036H27.0592Z" fill="#14B45C"/>
</svg>
